<svg width="231" height="141" viewBox="0 0 231 141" fill="none" xmlns="http://www.w3.org/2000/svg">
<path d="M55.0625 7.1875C57.2292 7.5625 61.2708 7.83333 67.1875 8C73.2292 9.45833 78.625 11.5208 83.375 14.1875C89.7917 18.8125 93.2292 22 93.6875 23.75C94.2708 23.75 95.0417 24.5 96 26C97.9167 27.1667 99.2083 29.1458 99.875 31.9375C101.042 36.4792 101.625 39.375 101.625 40.625C101.625 46 97.6875 53.8542 89.8125 64.1875L77.1875 75.4375C76.8958 76.0625 75.125 77.1042 71.875 78.5625C71.75 79.4375 69.2917 80.75 64.5 82.5C63.9167 82.9167 63.625 83.1875 63.625 83.3125C66.4167 85.1042 70.0417 87.9167 74.5 91.75C75.4583 91.75 76.25 92.3125 76.875 93.4375C77.4167 93.4375 78.6042 95.125 80.4375 98.5C80.6875 98.5 81.75 99.8958 83.625 102.688C84.5417 102.688 86.3125 103.354 88.9375 104.688C91.3542 104.688 93.0208 105.812 93.9375 108.062C94.6875 109.104 96.0625 110.417 98.0625 112C98.2708 113.333 98.375 114.062 98.375 114.188C98 114.396 97.7083 114.5 97.5 114.5V114.75C97.625 115.333 99.3958 117.125 102.812 120.125V120.688C102.812 121.021 101.917 121.292 100.125 121.5C100.25 122.792 101.333 124.021 103.375 125.188C103.375 125.896 104.75 127.292 107.5 129.375C108.333 131.333 109.021 132.562 109.562 133.062C110.396 133.062 111.479 134 112.812 135.875H111.312C111.312 135.417 109.167 133.625 104.875 130.5C100.5 125.458 96.5625 122.938 93.0625 122.938C93.0625 122.729 92.875 122.625 92.5 122.625V122.375C93.2917 122.375 93.6875 122.188 93.6875 121.812C91.2292 121.812 89.0625 120.875 87.1875 119C86.0625 117.917 84.6875 117.25 83.0625 117C83.0625 116.458 82.875 116.188 82.5 116.188H82.1875L81.875 117.312H81C78.9167 114.438 74.8958 110.979 68.9375 106.938C67.6875 105.229 65.4167 104.375 62.125 104.375C59.4583 103.25 57.2083 101.479 55.375 99.0625C55 99.0625 53.8125 98.3125 51.8125 96.8125C51.3958 96.8125 48.75 94.8333 43.875 90.875C41.4167 89.375 39.5625 88.625 38.3125 88.625H37.4375C36.6875 88.8333 35.5 90.8125 33.875 94.5625C33.0833 94.5625 32.6875 96.0625 32.6875 99.0625V101.312L33.5625 104.125V104.375C33.5625 106.25 31.8958 110.188 28.5625 116.188C28.0208 116.188 27.4375 116 26.8125 115.625C24.8958 121.333 23.7083 124.229 23.25 124.312C22.375 123.188 21.7917 122.625 21.5 122.625C20.5 122.625 20 123.104 20 124.062C20 125.562 18.0417 129.021 14.125 134.438C12.875 138.188 12.1042 140.062 11.8125 140.062L11.5 138.938C11.5 138.396 13.4583 133.333 17.375 123.75L17.9375 120.938C17.5625 119.729 17.375 118.229 17.375 116.438H17.9375C17.3542 114.854 17.0625 113.833 17.0625 113.375C17.0625 112.458 17.4583 108.625 18.25 101.875L17.6875 102.125H16.8125V101.562C17.6458 97.6458 19.3958 92.125 22.0625 85L22.6875 81.0625C20.9375 80.3542 19.2708 79.1458 17.6875 77.4375L17.9375 75.4375V73.5L18.25 72.9375C13.9583 71.8542 11.8125 71.1875 11.8125 70.9375C12.0208 70.9375 12.3125 70.8542 12.6875 70.6875C14.3542 70.8542 15.7292 70.9375 16.8125 70.9375H17.9375C18.2292 70.9375 18.5417 70.6667 18.875 70.125C13.625 68.5417 9.58333 66.6667 6.75 64.5H7.6875C10.6042 65.625 14.3333 66.1875 18.875 66.1875V65.875C18.875 65.5 18.9583 65.3125 19.125 65.3125L18.875 63.9375V62.8125C18.875 61.3125 19.8542 60.1875 21.8125 59.4375L22.6875 58.3125V58.0625C21.8958 57.0625 21.5 56.2083 21.5 55.5C21.5833 55.125 21.7708 54.9375 22.0625 54.9375C22.0625 55.7708 23.0625 56.4375 25.0625 56.9375V55.5C25.0625 53.9583 24.1667 51.625 22.375 48.5V47.375H23.25C25.8333 52.25 27.8958 54.6875 29.4375 54.6875C30.3125 52.9375 30.9167 49.2708 31.25 43.6875C31.25 42.8958 31.7292 41.875 32.6875 40.625V38.9375C32.6875 37.3125 33.1875 35.8125 34.1875 34.4375C34.1875 34.1042 33.9792 33.5417 33.5625 32.75C35.3125 29.2083 38.75 26.5 43.875 24.625C46.8333 24.5 48.3125 24.0208 48.3125 23.1875V22.9375C47.4375 22.9375 46.8542 22.8333 46.5625 22.625L42.6875 23.1875C40.7708 22.8125 38.9167 22.3542 37.125 21.8125V21.25L37.6875 20.375H35.9375C33.6042 21.125 30.3542 21.6042 26.1875 21.8125C25.4375 21.6042 24.75 21.5 24.125 21.5V20.6875C24.9167 20.6875 25.5208 20.3125 25.9375 19.5625C25.1458 18.8542 24.75 18.375 24.75 18.125C18.1667 19.625 13.6458 21.125 11.1875 22.625C9.47917 24.125 8.10417 24.875 7.0625 24.875C6.64583 24.875 6.25 24.7917 5.875 24.625C2.625 26.5 0.770833 27.4375 0.3125 27.4375V26.5625C14.4375 18.6875 23.2708 14.75 26.8125 14.75L26.5 14.1875C26.7083 14.1875 29.2708 13.1667 34.1875 11.125H34.4375C34.4375 11.5 33.75 11.875 32.375 12.25V12.5L33.875 12.8125C35.875 10.9375 39.2083 10 43.875 10C47.25 9.25 51.2708 8.77083 55.9375 8.5625V8.3125C55.3542 8.3125 55.0625 8.125 55.0625 7.75V7.1875ZM38.3125 16.1875V16.4375H39.75V16.1875H38.3125ZM63.3125 22.625C63.1875 22.625 62.6042 22.5417 61.5625 22.375C58.8125 22.625 57.4375 23.0833 57.4375 23.75V25.75C58.0208 27.4583 58.3125 29.6042 58.3125 32.1875C58.3125 35.7292 57.5208 37.5 55.9375 37.5C55.6875 39 55.2083 39.75 54.5 39.75V41.1875C54.5 41.5625 53.125 44.375 50.375 49.625V50.4375C50.375 50.5625 50.4792 51.7917 50.6875 54.125C50.3958 55.25 49.0208 57.5833 46.5625 61.125C46.1458 62.0417 45.9375 63.3542 45.9375 65.0625C47.2292 65.6042 48.8125 65.875 50.6875 65.875C55.2708 65.125 60.0833 63.8125 65.125 61.9375C65.125 60.9375 66.1042 59.7292 68.0625 58.3125C69.7292 57.7708 71.6875 56.6458 73.9375 54.9375C76.1042 54.9375 77.9583 53.25 79.5 49.875C80.25 48.9583 81.4375 46.3333 83.0625 42L82.75 41.4375C82.9583 40.7292 83.0625 40.0833 83.0625 39.5C80.4375 31.3333 76.8125 26.0833 72.1875 23.75C71.1875 23.5 70.6875 23.2292 70.6875 22.9375L71 22.375C70.625 22.375 69.7292 22.0833 68.3125 21.5C65.7292 22.25 64.0625 22.625 63.3125 22.625ZM35.375 25.75H36.25L36.5 27.125V27.4375L35.0625 27.6875L34.75 26.3125C34.8333 25.9375 35.0417 25.75 35.375 25.75ZM56.5625 26.875C56.7708 27.2083 56.875 27.4792 56.875 27.6875H57.125V26.875H56.5625ZM16.8125 43.125H17.6875C18.0625 43.2083 18.25 43.3958 18.25 43.6875V44.5625C18.25 44.9375 18.0625 45.125 17.6875 45.125H17.0625C16.6875 45.125 16.5 44.9375 16.5 44.5625L16.8125 43.125ZM14.75 51.875C16.125 52.4167 16.8125 53.25 16.8125 54.375V55.25L14.75 55.5H13.5625C12.9792 54.1667 12.6875 53.3333 12.6875 53C13.8125 52.25 14.5 51.875 14.75 51.875ZM73.0625 56.0625V56.625C73.4375 56.4583 73.7292 56.375 73.9375 56.375V56.0625H73.0625ZM87.5 64.5L87.1875 65.0625V65.3125H87.5C87.5 65.1458 87.5833 64.875 87.75 64.5H87.5ZM0.5625 64.75H1.1875C1.5625 64.8333 1.75 65.0208 1.75 65.3125V66.1875C1.75 66.5625 1.5625 66.75 1.1875 66.75H0.3125L0 65.3125C0.0416667 64.9375 0.229167 64.75 0.5625 64.75ZM85.125 66.4375V67H85.4375V66.4375H85.125ZM5.625 72.625C6.625 72.625 7.5 73.1875 8.25 74.3125V75.1875C6.95833 75.9375 6.08333 76.3125 5.625 76.3125H5C4.70833 76.3125 4.41667 76.0208 4.125 75.4375V73.1875L5.625 72.625ZM16.8125 115.312H17.0625V116.438H16.8125V115.312ZM128.938 8.3125H130.688L130.938 9.3125C130.771 9.97917 130.188 10.3125 129.188 10.3125L128.688 9.0625C128.854 8.72917 128.938 8.47917 128.938 8.3125ZM113.188 11.0625C114.479 11.0625 116.312 11.7292 118.688 13.0625C120.771 13.2292 122.021 13.3125 122.438 13.3125L128.438 12.3125H129.188C129.188 13.0625 129.688 13.6458 130.688 14.0625C132.396 13.2292 135.562 12.8125 140.188 12.8125H141.438C143.938 12.8125 145.688 13.5625 146.688 15.0625C147.354 15.3958 147.938 15.5625 148.438 15.5625C151.396 15.5625 153.396 14.8125 154.438 13.3125C154.771 13.3125 154.938 13.2292 154.938 13.0625C159.646 13.0625 162.729 13.9792 164.188 15.8125C164.188 16.1042 166.188 16.4375 170.188 16.8125L170.438 17.3125V17.5625C170.438 17.9792 169.771 18.3958 168.438 18.8125V19.0625C168.438 19.4375 171.104 20.1042 176.438 21.0625C177.854 21.6875 180.188 22.1042 183.438 22.3125L183.938 23.0625C182.729 23.5625 181.312 23.8125 179.688 23.8125L171.438 23.0625C167.688 23.0625 165.438 23.8125 164.688 25.3125C164.688 25.4792 164.604 25.5625 164.438 25.5625H160.938C158.771 26.2292 157.604 26.5625 157.438 26.5625L157.688 27.8125V28.0625C157.562 28.0625 156.896 28.1458 155.688 28.3125C148.521 28.1458 144.104 28.0625 142.438 28.0625C141.271 28.3542 140.688 28.8542 140.688 29.5625H139.938C138.521 29.5625 136.271 29.4792 133.188 29.3125L132.938 31.0625C133.438 32.2292 133.688 32.8958 133.688 33.0625C132.521 39.8958 131.188 43.8958 129.688 45.0625C127.854 47.6458 126.938 50.4792 126.938 53.5625L126.438 58.3125C128.021 60.1458 130.354 61.0625 133.438 61.0625C134.979 61.0625 136.229 60.3958 137.188 59.0625H137.938C138.979 59.0625 140.312 59.3125 141.938 59.8125L143.438 59.5625H144.188C145.562 61.5625 148.062 62.5625 151.688 62.5625L151.938 63.0625V63.8125C151.229 63.8125 150.729 64.2292 150.438 65.0625C155.146 66.2292 160.062 67.0625 165.188 67.5625L165.438 68.0625C165.438 68.5208 164.604 68.8542 162.938 69.0625C161.438 69.0625 158.188 68.8125 153.188 68.3125C152.646 68.3125 151.979 68.5625 151.188 69.0625H148.938C148.229 69.0625 147.396 69.6458 146.438 70.8125H143.938C143.146 70.8125 141.729 71.0625 139.688 71.5625V71.8125L140.188 72.5625V72.8125C140.188 73.1458 140.021 73.3125 139.688 73.3125C133.438 73.1458 129.604 73.0625 128.188 73.0625C127.896 74.2292 126.646 74.8125 124.438 74.8125C124.438 75.0208 122.771 75.8542 119.438 77.3125L116.438 84.5625C115.521 85.6875 114.354 86.6042 112.938 87.3125C111.938 89.8958 111.438 91.8125 111.438 93.0625V93.8125L112.688 94.0625H113.938C116.104 92.5625 118.771 91.8125 121.938 91.8125C123.271 92.7708 123.938 93.3542 123.938 93.5625C132.312 91.5625 136.896 90.5625 137.688 90.5625H138.188C139.979 90.5625 141.396 90.6458 142.438 90.8125C143.646 90.6458 145.146 90.5625 146.938 90.5625H148.188C148.979 90.5625 150.729 91.3125 153.438 92.8125H154.188C158.188 92.8125 161.188 91.8958 163.188 90.0625H163.688C170.646 90.0625 174.562 90.8125 175.438 92.3125C175.438 92.9792 178.104 93.4792 183.438 93.8125L183.688 94.3125V94.5625L181.688 95.8125L181.438 96.3125L181.938 96.5625C184.021 96.5625 188.438 97.2292 195.188 98.5625C197.521 98.5625 198.688 98.8125 198.688 99.3125V99.5625C198.688 100.062 197.604 100.312 195.438 100.312H188.688C187.354 100.312 185.604 100.229 183.438 100.062C182.896 100.396 182.396 100.562 181.938 100.562H179.688C178.312 100.562 177.229 101.146 176.438 102.312C175.896 102.646 175.396 102.812 174.938 102.812C172.854 102.646 171.771 102.562 171.688 102.562C169.271 103.062 167.688 103.479 166.938 103.812C167.271 104.354 167.438 104.854 167.438 105.312L165.188 105.812C164.104 105.812 162.688 105.729 160.938 105.562C150.271 106.146 144.938 106.646 144.938 107.062C144.938 107.729 144.771 108.062 144.438 108.062L127.188 109.312C122.521 109.938 120.188 110.604 120.188 111.312C119.896 111.562 118.229 111.812 115.188 112.062C114.812 112.562 114.229 112.812 113.438 112.812H113.188C112.604 112.812 111.854 112.729 110.938 112.562C107.438 114.396 104.104 115.312 100.938 115.312C100.938 114.312 100.354 113.812 99.1875 113.812C99.1875 114.938 97.2708 118.438 93.4375 124.312C92.5625 126.812 91.8958 128.062 91.4375 128.062H90.9375V127.812C90.9375 125.604 92.2708 121.688 94.9375 116.062C95.4375 113.896 95.6875 112.479 95.6875 111.812C89.6875 110.229 86.6875 108.812 86.6875 107.562V105.562L86.9375 104.312C84.1042 103.646 82.6875 102.979 82.6875 102.312C84.1875 101.396 84.9375 100.812 84.9375 100.562V100.312C83.5625 99.8542 81.1458 99.3542 77.6875 98.8125L77.1875 98.0625V97.5625C78.6875 97.2292 80.1042 96.9792 81.4375 96.8125C82.3125 96.9792 82.8125 97.0625 82.9375 97.0625C86.4375 97.0625 91.1042 95.8958 96.9375 93.5625C96.9375 93.0625 97.8542 90.4792 99.6875 85.8125C100.062 83.9792 101.146 80.8125 102.938 76.3125V76.0625C102.938 75.7708 102.688 75.0208 102.188 73.8125C102.188 73.4792 102.438 72.6458 102.938 71.3125C102.229 71.3125 101.312 69.6458 100.188 66.3125H98.9375C98.6875 66.3125 98.4375 66.0625 98.1875 65.5625V64.8125C98.8542 64.8125 99.1875 64.3125 99.1875 63.3125C97.3958 62.9792 95.4792 62.8125 93.4375 62.8125H92.9375C92.6042 62.8125 92.4375 62.6458 92.4375 62.3125V62.0625C92.4375 61.4792 94.1875 61.0625 97.6875 60.8125C101.188 59.7708 102.938 59.1042 102.938 58.8125C102.271 58.6458 101.938 58.1458 101.938 57.3125L103.688 57.0625C105.188 57.3958 106.271 57.5625 106.938 57.5625C108.271 57.5625 108.938 54.1458 108.938 47.3125C110.438 43.6875 111.188 41.1042 111.188 39.5625V36.0625C111.188 34.7292 112.021 33.3125 113.688 31.8125C110.812 30.1042 108.896 28.6875 107.938 27.5625C107.896 27.3125 106.312 26.3958 103.188 24.8125C102.688 24.1875 102.438 23.6042 102.438 23.0625V21.8125L102.688 20.0625C101.688 20.0625 100.771 19.4792 99.9375 18.3125V17.8125C101.271 17.5208 101.938 17.1875 101.938 16.8125C101.188 16.1458 98.9375 15.4792 95.1875 14.8125L94.9375 13.8125C95.5625 13.4792 96.2292 13.3125 96.9375 13.3125H104.188C109.562 11.8125 112.562 11.0625 113.188 11.0625ZM90.1875 14.8125H91.1875C91.6875 14.9792 91.9375 15.4792 91.9375 16.3125V16.5625L90.6875 17.0625C90.0208 16.8958 89.6875 16.3958 89.6875 15.5625C90.0208 15.5625 90.1875 15.3125 90.1875 14.8125ZM95.9375 20.8125C97.7708 20.8125 98.6875 21.4792 98.6875 22.8125C97.9375 23.9792 97.0208 24.5625 95.9375 24.5625C95.1042 24.3125 94.6875 23.7292 94.6875 22.8125V21.8125C94.6875 21.5625 95.1042 21.2292 95.9375 20.8125ZM130.688 41.3125V41.8125C131.021 41.8125 131.188 41.6458 131.188 41.3125H130.688ZM96.9375 57.8125H98.1875L98.6875 59.0625C98.5208 59.7292 98.0208 60.0625 97.1875 60.0625L96.4375 59.0625V58.8125C96.7708 58.3958 96.9375 58.0625 96.9375 57.8125ZM88.6875 63.5625C89.3542 63.8125 89.6875 64.0625 89.6875 64.3125V65.5625C89.1042 65.7292 88.7708 65.8125 88.6875 65.8125C88.0208 65.5625 87.6875 65.3125 87.6875 65.0625V64.3125C87.6875 63.8958 88.0208 63.6458 88.6875 63.5625ZM95.6875 68.5625C96.8542 68.5625 97.4375 69.0625 97.4375 70.0625V70.5625C97.0208 71.5625 96.3542 72.0625 95.4375 72.0625H94.4375C94.1458 72.0625 93.8125 71.5625 93.4375 70.5625C93.7292 69.2292 94.4792 68.5625 95.6875 68.5625ZM72.1875 99.0625H73.1875C73.6875 99.2292 73.9375 99.7292 73.9375 100.562V101.062L72.6875 101.312H72.4375C72.1875 101.312 71.9375 100.979 71.6875 100.312C72.0208 99.7708 72.1875 99.3542 72.1875 99.0625ZM78.4375 105.312H79.1875C80.8542 105.312 81.6875 105.812 81.6875 106.812C80.9792 108.479 80.0625 109.312 78.9375 109.312C78.0625 109.312 77.4792 108.562 77.1875 107.062C77.4375 106.062 77.8542 105.479 78.4375 105.312ZM204.062 0H204.875C205.167 0 205.542 0.354167 206 1.0625V1.5625C205.792 2.10417 205.229 2.375 204.312 2.375H204.062C204.062 2.125 203.875 1.77083 203.5 1.3125C203.875 0.729167 204.062 0.291667 204.062 0ZM194.688 4H197.75L198.25 5.8125C198.25 7.22917 197.521 7.9375 196.062 7.9375H195.25C194.5 6.60417 194.125 5.72917 194.125 5.3125C194.5 4.72917 194.688 4.29167 194.688 4ZM206.25 6.375C206.25 6.70833 206.333 6.875 206.5 6.875L205.438 13.5625C210.312 15.8958 216.729 22.3542 224.688 32.9375C228.896 38.6875 231 43.6458 231 47.8125V49.375C231 50.4167 230.271 51.75 228.812 53.375V54.6875C228.812 61.8542 226.25 68.9375 221.125 75.9375C221.125 77.9792 217.729 81.7083 210.938 87.125C210.938 87.9167 206.812 91.1042 198.562 96.6875C196.021 96.8125 193.167 97.6875 190 99.3125C183.292 103.646 179.167 106.833 177.625 108.875C177.625 110.375 172.688 112.958 162.812 116.625C162.271 117.042 161.438 118.625 160.312 121.375C159.396 121.833 158.396 123.875 157.312 127.5H156.75C156.375 127.5 156.188 127.312 156.188 126.938L158.375 119H158.125C157.542 119.333 157 119.5 156.5 119.5H154.562C152.271 119.5 147.312 121.729 139.688 126.188L138.625 126.438C138.25 126.271 137.958 126.188 137.75 126.188V125.625C139.958 124.167 141.062 123.021 141.062 122.188C139.729 122.188 136.438 123.875 131.188 127.25C125.104 129.875 121.167 131.188 119.375 131.188C118.208 132.271 116.917 132.812 115.5 132.812V131.75C119.75 129 124.062 126.875 128.438 125.375C132.146 123.042 135.25 120.646 137.75 118.188C142.5 115.979 145.354 113.688 146.312 111.312C147.396 109.979 151.25 107.75 157.875 104.625C159.708 103.167 160.625 101.75 160.625 100.375V99.875C161.875 99.875 162.688 97.5625 163.062 92.9375H162.812L161.438 93.25V92.1875C161.438 91.1042 162.625 88 165 82.875C165.708 79.7083 167.083 75.8125 169.125 71.1875V70.625C168.375 69.1667 168 68.375 168 68.25C169.25 64.2917 171.917 57.125 176 46.75V46.1875L175.75 42.5C177.208 39.375 177.938 36.8958 177.938 35.0625C178.896 35.0625 179.438 32.3125 179.562 26.8125C181.021 24.8542 181.75 23.7083 181.75 23.375H181.5C176.417 21.9583 172.833 20.1042 170.75 17.8125C171.125 16.6458 171.312 15.8333 171.312 15.375V15.125C171.062 15.125 170.062 14.9583 168.312 14.625C166.479 14.9583 164.917 15.125 163.625 15.125L163.375 14.625V14.3125C163.375 13.9792 165.208 13.1875 168.875 11.9375V11.6875L167.5 11.4375C165.25 11.9375 163.875 12.1875 163.375 12.1875C159.125 12.1875 157 11.8333 157 11.125V10.875C157 10.2083 159.583 9.58333 164.75 9C168.25 7.79167 172.542 7.1875 177.625 7.1875C188.458 7.97917 193.875 8.58333 193.875 9C194.333 9 195.979 9.54167 198.812 10.625L200.5 10.375C201.75 11.4167 202.479 11.9375 202.688 11.9375C203.521 8.0625 204.708 6.125 206.25 6.125V6.375ZM152.375 12.75H153.75L154 14.0625V14.3125L152.062 14.875C151.688 14.4583 151.5 14.1042 151.5 13.8125C151.792 13.1042 152.083 12.75 152.375 12.75ZM209 16.75V17C209.917 17.7083 210.458 18.0625 210.625 18.0625V17.8125L209 16.75ZM161.125 17.8125C161.958 18.1458 162.417 18.5 162.5 18.875V19.9375C161.875 21.1458 160.958 21.75 159.75 21.75H159.25C158.75 21.75 158.375 21.0417 158.125 19.625V19.375C158.833 18.3333 159.833 17.8125 161.125 17.8125ZM195.812 45.9375V49.6875C195.354 52.6875 194.521 54.1875 193.312 54.1875C191.854 54.1875 191.042 56.6667 190.875 61.625C189.833 63.9583 189.083 66.7917 188.625 70.125C187.292 71.75 185.833 75.0208 184.25 79.9375C183.167 81.5208 181.792 82.5833 180.125 83.125C179.375 84.3333 178.646 86.7292 177.938 90.3125H178.188C181.854 88.1875 186.542 85 192.25 80.75C193.667 80.75 195.042 78.7917 196.375 74.875C201.917 70.4583 206.042 65.9583 208.75 61.375C211.125 57.5 212.312 54.125 212.312 51.25V51C212.312 48.75 211.479 47.0625 209.812 45.9375C208.979 42.5625 207.792 40.875 206.25 40.875C204.5 37.875 202.854 36.375 201.312 36.375C198.188 40.3333 196.354 43.5208 195.812 45.9375ZM162.25 91.625V92.1875H162.5V91.625H162.25ZM140 124.812V125.125H140.5V124.812H140Z" fill="#CC3028"/>
</svg>
