<svg width="488" height="280" viewBox="0 0 488 280" fill="none" xmlns="http://www.w3.org/2000/svg">
<path d="M117.062 64.1875C119.229 64.5625 123.271 64.8333 129.188 65C135.229 66.4583 140.625 68.5208 145.375 71.1875C151.792 75.8125 155.229 79 155.688 80.75C156.271 80.75 157.042 81.5 158 83C159.917 84.1667 161.208 86.1458 161.875 88.9375C163.042 93.4792 163.625 96.375 163.625 97.625C163.625 103 159.688 110.854 151.812 121.188L139.188 132.438C138.896 133.062 137.125 134.104 133.875 135.562C133.75 136.438 131.292 137.75 126.5 139.5C125.917 139.917 125.625 140.188 125.625 140.312C128.417 142.104 132.042 144.917 136.5 148.75C137.458 148.75 138.25 149.312 138.875 150.438C139.417 150.438 140.604 152.125 142.438 155.5C142.688 155.5 143.75 156.896 145.625 159.688C146.542 159.688 148.312 160.354 150.938 161.688C153.354 161.688 155.021 162.812 155.938 165.062C156.688 166.104 158.062 167.417 160.062 169C160.271 170.333 160.375 171.062 160.375 171.188C160 171.396 159.708 171.5 159.5 171.5V171.75C159.625 172.333 161.396 174.125 164.812 177.125V177.688C164.812 178.021 163.917 178.292 162.125 178.5C162.25 179.792 163.333 181.021 165.375 182.188C165.375 182.896 166.75 184.292 169.5 186.375C170.333 188.333 171.021 189.562 171.562 190.062C172.396 190.062 173.479 191 174.812 192.875H173.312C173.312 192.417 171.167 190.625 166.875 187.5C162.5 182.458 158.562 179.938 155.062 179.938C155.062 179.729 154.875 179.625 154.5 179.625V179.375C155.292 179.375 155.688 179.188 155.688 178.812C153.229 178.812 151.062 177.875 149.188 176C148.062 174.917 146.688 174.25 145.062 174C145.062 173.458 144.875 173.188 144.5 173.188H144.188L143.875 174.312H143C140.917 171.438 136.896 167.979 130.938 163.938C129.688 162.229 127.417 161.375 124.125 161.375C121.458 160.25 119.208 158.479 117.375 156.062C117 156.062 115.812 155.312 113.812 153.812C113.396 153.812 110.75 151.833 105.875 147.875C103.417 146.375 101.562 145.625 100.312 145.625H99.4375C98.6875 145.833 97.5 147.812 95.875 151.562C95.0833 151.562 94.6875 153.062 94.6875 156.062V158.312L95.5625 161.125V161.375C95.5625 163.25 93.8958 167.188 90.5625 173.188C90.0208 173.188 89.4375 173 88.8125 172.625C86.8958 178.333 85.7083 181.229 85.25 181.312C84.375 180.188 83.7917 179.625 83.5 179.625C82.5 179.625 82 180.104 82 181.062C82 182.562 80.0417 186.021 76.125 191.438C74.875 195.188 74.1042 197.062 73.8125 197.062L73.5 195.938C73.5 195.396 75.4583 190.333 79.375 180.75L79.9375 177.938C79.5625 176.729 79.375 175.229 79.375 173.438H79.9375C79.3542 171.854 79.0625 170.833 79.0625 170.375C79.0625 169.458 79.4583 165.625 80.25 158.875L79.6875 159.125H78.8125V158.562C79.6458 154.646 81.3958 149.125 84.0625 142L84.6875 138.062C82.9375 137.354 81.2708 136.146 79.6875 134.438L79.9375 132.438V130.5L80.25 129.938C75.9583 128.854 73.8125 128.188 73.8125 127.938C74.0208 127.938 74.3125 127.854 74.6875 127.688C76.3542 127.854 77.7292 127.938 78.8125 127.938H79.9375C80.2292 127.938 80.5417 127.667 80.875 127.125C75.625 125.542 71.5833 123.667 68.75 121.5H69.6875C72.6042 122.625 76.3333 123.188 80.875 123.188V122.875C80.875 122.5 80.9583 122.312 81.125 122.312L80.875 120.938V119.812C80.875 118.312 81.8542 117.188 83.8125 116.438L84.6875 115.312V115.062C83.8958 114.062 83.5 113.208 83.5 112.5C83.5833 112.125 83.7708 111.938 84.0625 111.938C84.0625 112.771 85.0625 113.438 87.0625 113.938V112.5C87.0625 110.958 86.1667 108.625 84.375 105.5V104.375H85.25C87.8333 109.25 89.8958 111.688 91.4375 111.688C92.3125 109.938 92.9167 106.271 93.25 100.688C93.25 99.8958 93.7292 98.875 94.6875 97.625V95.9375C94.6875 94.3125 95.1875 92.8125 96.1875 91.4375C96.1875 91.1042 95.9792 90.5417 95.5625 89.75C97.3125 86.2083 100.75 83.5 105.875 81.625C108.833 81.5 110.312 81.0208 110.312 80.1875V79.9375C109.438 79.9375 108.854 79.8333 108.562 79.625L104.688 80.1875C102.771 79.8125 100.917 79.3542 99.125 78.8125V78.25L99.6875 77.375H97.9375C95.6042 78.125 92.3542 78.6042 88.1875 78.8125C87.4375 78.6042 86.75 78.5 86.125 78.5V77.6875C86.9167 77.6875 87.5208 77.3125 87.9375 76.5625C87.1458 75.8542 86.75 75.375 86.75 75.125C80.1667 76.625 75.6458 78.125 73.1875 79.625C71.4792 81.125 70.1042 81.875 69.0625 81.875C68.6458 81.875 68.25 81.7917 67.875 81.625C64.625 83.5 62.7708 84.4375 62.3125 84.4375V83.5625C76.4375 75.6875 85.2708 71.75 88.8125 71.75L88.5 71.1875C88.7083 71.1875 91.2708 70.1667 96.1875 68.125H96.4375C96.4375 68.5 95.75 68.875 94.375 69.25V69.5L95.875 69.8125C97.875 67.9375 101.208 67 105.875 67C109.25 66.25 113.271 65.7708 117.938 65.5625V65.3125C117.354 65.3125 117.062 65.125 117.062 64.75V64.1875ZM100.312 73.1875V73.4375H101.75V73.1875H100.312ZM125.312 79.625C125.188 79.625 124.604 79.5417 123.562 79.375C120.812 79.625 119.438 80.0833 119.438 80.75V82.75C120.021 84.4583 120.312 86.6042 120.312 89.1875C120.312 92.7292 119.521 94.5 117.938 94.5C117.688 96 117.208 96.75 116.5 96.75V98.1875C116.5 98.5625 115.125 101.375 112.375 106.625V107.438C112.375 107.562 112.479 108.792 112.688 111.125C112.396 112.25 111.021 114.583 108.562 118.125C108.146 119.042 107.938 120.354 107.938 122.062C109.229 122.604 110.812 122.875 112.688 122.875C117.271 122.125 122.083 120.812 127.125 118.938C127.125 117.938 128.104 116.729 130.062 115.312C131.729 114.771 133.688 113.646 135.938 111.938C138.104 111.938 139.958 110.25 141.5 106.875C142.25 105.958 143.438 103.333 145.062 99L144.75 98.4375C144.958 97.7292 145.062 97.0833 145.062 96.5C142.438 88.3333 138.812 83.0833 134.188 80.75C133.188 80.5 132.688 80.2292 132.688 79.9375L133 79.375C132.625 79.375 131.729 79.0833 130.312 78.5C127.729 79.25 126.062 79.625 125.312 79.625ZM97.375 82.75H98.25L98.5 84.125V84.4375L97.0625 84.6875L96.75 83.3125C96.8333 82.9375 97.0417 82.75 97.375 82.75ZM118.562 83.875C118.771 84.2083 118.875 84.4792 118.875 84.6875H119.125V83.875H118.562ZM78.8125 100.125H79.6875C80.0625 100.208 80.25 100.396 80.25 100.688V101.562C80.25 101.938 80.0625 102.125 79.6875 102.125H79.0625C78.6875 102.125 78.5 101.938 78.5 101.562L78.8125 100.125ZM76.75 108.875C78.125 109.417 78.8125 110.25 78.8125 111.375V112.25L76.75 112.5H75.5625C74.9792 111.167 74.6875 110.333 74.6875 110C75.8125 109.25 76.5 108.875 76.75 108.875ZM135.062 113.062V113.625C135.438 113.458 135.729 113.375 135.938 113.375V113.062H135.062ZM149.5 121.5L149.188 122.062V122.312H149.5C149.5 122.146 149.583 121.875 149.75 121.5H149.5ZM62.5625 121.75H63.1875C63.5625 121.833 63.75 122.021 63.75 122.312V123.188C63.75 123.562 63.5625 123.75 63.1875 123.75H62.3125L62 122.312C62.0417 121.938 62.2292 121.75 62.5625 121.75ZM147.125 123.438V124H147.438V123.438H147.125ZM67.625 129.625C68.625 129.625 69.5 130.188 70.25 131.312V132.188C68.9583 132.938 68.0833 133.312 67.625 133.312H67C66.7083 133.312 66.4167 133.021 66.125 132.438V130.188L67.625 129.625ZM78.8125 172.312H79.0625V173.438H78.8125V172.312ZM190.938 65.3125H192.688L192.938 66.3125C192.771 66.9792 192.188 67.3125 191.188 67.3125L190.688 66.0625C190.854 65.7292 190.938 65.4792 190.938 65.3125ZM175.188 68.0625C176.479 68.0625 178.312 68.7292 180.688 70.0625C182.771 70.2292 184.021 70.3125 184.438 70.3125L190.438 69.3125H191.188C191.188 70.0625 191.688 70.6458 192.688 71.0625C194.396 70.2292 197.562 69.8125 202.188 69.8125H203.438C205.938 69.8125 207.688 70.5625 208.688 72.0625C209.354 72.3958 209.938 72.5625 210.438 72.5625C213.396 72.5625 215.396 71.8125 216.438 70.3125C216.771 70.3125 216.938 70.2292 216.938 70.0625C221.646 70.0625 224.729 70.9792 226.188 72.8125C226.188 73.1042 228.188 73.4375 232.188 73.8125L232.438 74.3125V74.5625C232.438 74.9792 231.771 75.3958 230.438 75.8125V76.0625C230.438 76.4375 233.104 77.1042 238.438 78.0625C239.854 78.6875 242.188 79.1042 245.438 79.3125L245.938 80.0625C244.729 80.5625 243.312 80.8125 241.688 80.8125L233.438 80.0625C229.688 80.0625 227.438 80.8125 226.688 82.3125C226.688 82.4792 226.604 82.5625 226.438 82.5625H222.938C220.771 83.2292 219.604 83.5625 219.438 83.5625L219.688 84.8125V85.0625C219.562 85.0625 218.896 85.1458 217.688 85.3125C210.521 85.1458 206.104 85.0625 204.438 85.0625C203.271 85.3542 202.688 85.8542 202.688 86.5625H201.938C200.521 86.5625 198.271 86.4792 195.188 86.3125L194.938 88.0625C195.438 89.2292 195.688 89.8958 195.688 90.0625C194.521 96.8958 193.188 100.896 191.688 102.062C189.854 104.646 188.938 107.479 188.938 110.562L188.438 115.312C190.021 117.146 192.354 118.062 195.438 118.062C196.979 118.062 198.229 117.396 199.188 116.062H199.938C200.979 116.062 202.312 116.312 203.938 116.812L205.438 116.562H206.188C207.562 118.562 210.062 119.562 213.688 119.562L213.938 120.062V120.812C213.229 120.812 212.729 121.229 212.438 122.062C217.146 123.229 222.062 124.062 227.188 124.562L227.438 125.062C227.438 125.521 226.604 125.854 224.938 126.062C223.438 126.062 220.188 125.812 215.188 125.312C214.646 125.312 213.979 125.562 213.188 126.062H210.938C210.229 126.062 209.396 126.646 208.438 127.812H205.938C205.146 127.812 203.729 128.062 201.688 128.562V128.812L202.188 129.562V129.812C202.188 130.146 202.021 130.312 201.688 130.312C195.438 130.146 191.604 130.062 190.188 130.062C189.896 131.229 188.646 131.812 186.438 131.812C186.438 132.021 184.771 132.854 181.438 134.312L178.438 141.562C177.521 142.688 176.354 143.604 174.938 144.312C173.938 146.896 173.438 148.812 173.438 150.062V150.812L174.688 151.062H175.938C178.104 149.562 180.771 148.812 183.938 148.812C185.271 149.771 185.938 150.354 185.938 150.562C194.312 148.562 198.896 147.562 199.688 147.562H200.188C201.979 147.562 203.396 147.646 204.438 147.812C205.646 147.646 207.146 147.562 208.938 147.562H210.188C210.979 147.562 212.729 148.312 215.438 149.812H216.188C220.188 149.812 223.188 148.896 225.188 147.062H225.688C232.646 147.062 236.562 147.812 237.438 149.312C237.438 149.979 240.104 150.479 245.438 150.812L245.688 151.312V151.562L243.688 152.812L243.438 153.312L243.938 153.562C246.021 153.562 250.438 154.229 257.188 155.562C259.521 155.562 260.688 155.812 260.688 156.312V156.562C260.688 157.062 259.604 157.312 257.438 157.312H250.688C249.354 157.312 247.604 157.229 245.438 157.062C244.896 157.396 244.396 157.562 243.938 157.562H241.688C240.312 157.562 239.229 158.146 238.438 159.312C237.896 159.646 237.396 159.812 236.938 159.812C234.854 159.646 233.771 159.562 233.688 159.562C231.271 160.062 229.688 160.479 228.938 160.812C229.271 161.354 229.438 161.854 229.438 162.312L227.188 162.812C226.104 162.812 224.688 162.729 222.938 162.562C212.271 163.146 206.938 163.646 206.938 164.062C206.938 164.729 206.771 165.062 206.438 165.062L189.188 166.312C184.521 166.938 182.188 167.604 182.188 168.312C181.896 168.562 180.229 168.812 177.188 169.062C176.812 169.562 176.229 169.812 175.438 169.812H175.188C174.604 169.812 173.854 169.729 172.938 169.562C169.438 171.396 166.104 172.312 162.938 172.312C162.938 171.312 162.354 170.812 161.188 170.812C161.188 171.938 159.271 175.438 155.438 181.312C154.562 183.812 153.896 185.062 153.438 185.062H152.938V184.812C152.938 182.604 154.271 178.688 156.938 173.062C157.438 170.896 157.688 169.479 157.688 168.812C151.688 167.229 148.688 165.812 148.688 164.562V162.562L148.938 161.312C146.104 160.646 144.688 159.979 144.688 159.312C146.188 158.396 146.938 157.812 146.938 157.562V157.312C145.562 156.854 143.146 156.354 139.688 155.812L139.188 155.062V154.562C140.688 154.229 142.104 153.979 143.438 153.812C144.312 153.979 144.812 154.062 144.938 154.062C148.438 154.062 153.104 152.896 158.938 150.562C158.938 150.062 159.854 147.479 161.688 142.812C162.062 140.979 163.146 137.812 164.938 133.312V133.062C164.938 132.771 164.688 132.021 164.188 130.812C164.188 130.479 164.438 129.646 164.938 128.312C164.229 128.312 163.312 126.646 162.188 123.312H160.938C160.688 123.312 160.438 123.062 160.188 122.562V121.812C160.854 121.812 161.188 121.312 161.188 120.312C159.396 119.979 157.479 119.812 155.438 119.812H154.938C154.604 119.812 154.438 119.646 154.438 119.312V119.062C154.438 118.479 156.188 118.062 159.688 117.812C163.188 116.771 164.938 116.104 164.938 115.812C164.271 115.646 163.938 115.146 163.938 114.312L165.688 114.062C167.188 114.396 168.271 114.562 168.938 114.562C170.271 114.562 170.938 111.146 170.938 104.312C172.438 100.688 173.188 98.1042 173.188 96.5625V93.0625C173.188 91.7292 174.021 90.3125 175.688 88.8125C172.812 87.1042 170.896 85.6875 169.938 84.5625C169.896 84.3125 168.312 83.3958 165.188 81.8125C164.688 81.1875 164.438 80.6042 164.438 80.0625V78.8125L164.688 77.0625C163.688 77.0625 162.771 76.4792 161.938 75.3125V74.8125C163.271 74.5208 163.938 74.1875 163.938 73.8125C163.188 73.1458 160.938 72.4792 157.188 71.8125L156.938 70.8125C157.562 70.4792 158.229 70.3125 158.938 70.3125H166.188C171.562 68.8125 174.562 68.0625 175.188 68.0625ZM152.188 71.8125H153.188C153.688 71.9792 153.938 72.4792 153.938 73.3125V73.5625L152.688 74.0625C152.021 73.8958 151.688 73.3958 151.688 72.5625C152.021 72.5625 152.188 72.3125 152.188 71.8125ZM157.938 77.8125C159.771 77.8125 160.688 78.4792 160.688 79.8125C159.938 80.9792 159.021 81.5625 157.938 81.5625C157.104 81.3125 156.688 80.7292 156.688 79.8125V78.8125C156.688 78.5625 157.104 78.2292 157.938 77.8125ZM192.688 98.3125V98.8125C193.021 98.8125 193.188 98.6458 193.188 98.3125H192.688ZM158.938 114.812H160.188L160.688 116.062C160.521 116.729 160.021 117.062 159.188 117.062L158.438 116.062V115.812C158.771 115.396 158.938 115.062 158.938 114.812ZM150.688 120.562C151.354 120.812 151.688 121.062 151.688 121.312V122.562C151.104 122.729 150.771 122.812 150.688 122.812C150.021 122.562 149.688 122.312 149.688 122.062V121.312C149.688 120.896 150.021 120.646 150.688 120.562ZM157.688 125.562C158.854 125.562 159.438 126.062 159.438 127.062V127.562C159.021 128.562 158.354 129.062 157.438 129.062H156.438C156.146 129.062 155.812 128.562 155.438 127.562C155.729 126.229 156.479 125.562 157.688 125.562ZM134.188 156.062H135.188C135.688 156.229 135.938 156.729 135.938 157.562V158.062L134.688 158.312H134.438C134.188 158.312 133.938 157.979 133.688 157.312C134.021 156.771 134.188 156.354 134.188 156.062ZM140.438 162.312H141.188C142.854 162.312 143.688 162.812 143.688 163.812C142.979 165.479 142.062 166.312 140.938 166.312C140.062 166.312 139.479 165.562 139.188 164.062C139.438 163.062 139.854 162.479 140.438 162.312ZM266.062 57H266.875C267.167 57 267.542 57.3542 268 58.0625V58.5625C267.792 59.1042 267.229 59.375 266.312 59.375H266.062C266.062 59.125 265.875 58.7708 265.5 58.3125C265.875 57.7292 266.062 57.2917 266.062 57ZM256.688 61H259.75L260.25 62.8125C260.25 64.2292 259.521 64.9375 258.062 64.9375H257.25C256.5 63.6042 256.125 62.7292 256.125 62.3125C256.5 61.7292 256.688 61.2917 256.688 61ZM268.25 63.375C268.25 63.7083 268.333 63.875 268.5 63.875L267.438 70.5625C272.312 72.8958 278.729 79.3542 286.688 89.9375C290.896 95.6875 293 100.646 293 104.812V106.375C293 107.417 292.271 108.75 290.812 110.375V111.688C290.812 118.854 288.25 125.938 283.125 132.938C283.125 134.979 279.729 138.708 272.938 144.125C272.938 144.917 268.812 148.104 260.562 153.688C258.021 153.812 255.167 154.688 252 156.312C245.292 160.646 241.167 163.833 239.625 165.875C239.625 167.375 234.688 169.958 224.812 173.625C224.271 174.042 223.438 175.625 222.312 178.375C221.396 178.833 220.396 180.875 219.312 184.5H218.75C218.375 184.5 218.188 184.312 218.188 183.938L220.375 176H220.125C219.542 176.333 219 176.5 218.5 176.5H216.562C214.271 176.5 209.312 178.729 201.688 183.188L200.625 183.438C200.25 183.271 199.958 183.188 199.75 183.188V182.625C201.958 181.167 203.062 180.021 203.062 179.188C201.729 179.188 198.438 180.875 193.188 184.25C187.104 186.875 183.167 188.188 181.375 188.188C180.208 189.271 178.917 189.812 177.5 189.812V188.75C181.75 186 186.062 183.875 190.438 182.375C194.146 180.042 197.25 177.646 199.75 175.188C204.5 172.979 207.354 170.688 208.312 168.312C209.396 166.979 213.25 164.75 219.875 161.625C221.708 160.167 222.625 158.75 222.625 157.375V156.875C223.875 156.875 224.688 154.562 225.062 149.938H224.812L223.438 150.25V149.188C223.438 148.104 224.625 145 227 139.875C227.708 136.708 229.083 132.812 231.125 128.188V127.625C230.375 126.167 230 125.375 230 125.25C231.25 121.292 233.917 114.125 238 103.75V103.188L237.75 99.5C239.208 96.375 239.938 93.8958 239.938 92.0625C240.896 92.0625 241.438 89.3125 241.562 83.8125C243.021 81.8542 243.75 80.7083 243.75 80.375H243.5C238.417 78.9583 234.833 77.1042 232.75 74.8125C233.125 73.6458 233.312 72.8333 233.312 72.375V72.125C233.062 72.125 232.062 71.9583 230.312 71.625C228.479 71.9583 226.917 72.125 225.625 72.125L225.375 71.625V71.3125C225.375 70.9792 227.208 70.1875 230.875 68.9375V68.6875L229.5 68.4375C227.25 68.9375 225.875 69.1875 225.375 69.1875C221.125 69.1875 219 68.8333 219 68.125V67.875C219 67.2083 221.583 66.5833 226.75 66C230.25 64.7917 234.542 64.1875 239.625 64.1875C250.458 64.9792 255.875 65.5833 255.875 66C256.333 66 257.979 66.5417 260.812 67.625L262.5 67.375C263.75 68.4167 264.479 68.9375 264.688 68.9375C265.521 65.0625 266.708 63.125 268.25 63.125V63.375ZM214.375 69.75H215.75L216 71.0625V71.3125L214.062 71.875C213.688 71.4583 213.5 71.1042 213.5 70.8125C213.792 70.1042 214.083 69.75 214.375 69.75ZM271 73.75V74C271.917 74.7083 272.458 75.0625 272.625 75.0625V74.8125L271 73.75ZM223.125 74.8125C223.958 75.1458 224.417 75.5 224.5 75.875V76.9375C223.875 78.1458 222.958 78.75 221.75 78.75H221.25C220.75 78.75 220.375 78.0417 220.125 76.625V76.375C220.833 75.3333 221.833 74.8125 223.125 74.8125ZM257.812 102.938V106.688C257.354 109.688 256.521 111.188 255.312 111.188C253.854 111.188 253.042 113.667 252.875 118.625C251.833 120.958 251.083 123.792 250.625 127.125C249.292 128.75 247.833 132.021 246.25 136.938C245.167 138.521 243.792 139.583 242.125 140.125C241.375 141.333 240.646 143.729 239.938 147.312H240.188C243.854 145.188 248.542 142 254.25 137.75C255.667 137.75 257.042 135.792 258.375 131.875C263.917 127.458 268.042 122.958 270.75 118.375C273.125 114.5 274.312 111.125 274.312 108.25V108C274.312 105.75 273.479 104.062 271.812 102.938C270.979 99.5625 269.792 97.875 268.25 97.875C266.5 94.875 264.854 93.375 263.312 93.375C260.188 97.3333 258.354 100.521 257.812 102.938ZM224.25 148.625V149.188H224.5V148.625H224.25ZM202 181.812V182.125H202.5V181.812H202Z" fill="#CC3028"/>
<path d="M289.92 205.72C287.92 205.72 286.4 204.92 285.36 203.32C284.24 201.8 283.68 199.68 283.68 196.96C283.68 196.32 283.72 195.6 283.8 194.8C283.88 194 284 193.2 284.16 192.4C285.52 185.04 287.56 177.32 290.28 169.24C293.08 161.16 296.56 153.12 300.72 145.12C298.48 145.84 296.4 146.36 294.48 146.68C292.64 147 290.96 147.16 289.44 147.16C287.68 147.16 286.4 146.96 285.6 146.56C284.8 146.08 284.4 145.64 284.4 145.24C284.4 144.44 285.2 144.04 286.8 144.04C287.2 144.04 287.6 144.08 288 144.16C288.4 144.16 288.76 144.16 289.08 144.16C292.68 144.16 297.24 143.08 302.76 140.92C307.4 132.52 312.36 124.84 317.64 117.88C322.92 110.84 328.4 104.72 334.08 99.52C336.4 97.44 338.64 95.92 340.8 94.96C343.04 93.92 345.04 93.4 346.8 93.4C348.88 93.4 350.6 94.12 351.96 95.56C353.4 96.92 354.12 99.08 354.12 102.04C354.12 103.64 353.76 105.36 353.04 107.2C350.96 112.4 346.88 117.56 340.8 122.68C339.28 123.96 337.72 125.2 336.12 126.4C334.52 127.6 332.92 128.76 331.32 129.88C327.96 132.12 324.44 134.24 320.76 136.24C317.16 138.24 313.6 139.96 310.08 141.4C304.64 150.84 300.32 160.04 297.12 169C293.68 178.84 291.88 187.24 291.72 194.2C291.72 197.4 292.44 199 293.88 199C294.36 199 294.88 198.88 295.44 198.64C296 198.4 296.68 198.12 297.48 197.8C299.88 196.36 301.96 194.88 303.72 193.36C305.48 191.84 307.24 190.08 309 188.08C309.64 187.36 310.44 186.4 311.4 185.2C312.44 184 313.56 182.64 314.76 181.12C316.2 179.36 317.68 177.52 319.2 175.6C320.8 173.68 322.28 171.92 323.64 170.32C325.24 168.4 326.84 166.56 328.44 164.8C328.76 164.4 329.12 164.2 329.52 164.2C330.48 164.2 330.96 164.72 330.96 165.76C330.96 166.32 330.72 166.84 330.24 167.32C329.36 168.44 328.4 169.6 327.36 170.8C326.4 172 325.48 173.12 324.6 174.16C324.12 174.72 323.16 175.84 321.72 177.52C320.36 179.12 318.76 181.04 316.92 183.28C315.24 185.28 313.48 187.36 311.64 189.52C309.88 191.76 308.24 193.76 306.72 195.52C305.2 197.28 303.96 198.64 303 199.6C298.68 203.68 294.32 205.72 289.92 205.72ZM344.16 98.92C339.2 102.84 334 108.04 328.56 114.52C323.2 121 318.08 128.24 313.2 136.24C316.96 134.32 320.76 132.08 324.6 129.52C328.52 126.88 332.2 124.08 335.64 121.12C339.08 118.16 342.04 115.16 344.52 112.12C347 109 348.72 106 349.68 103.12C350 102.16 350.16 101.24 350.16 100.36C350.16 98.36 349.36 97.36 347.76 97.36C346.64 97.36 345.44 97.88 344.16 98.92ZM351.334 132.16C350.294 132.16 349.414 131.84 348.694 131.2C347.974 130.48 347.614 129.6 347.614 128.56C347.614 127.2 348.094 126.04 349.054 125.08C350.014 124.12 351.134 123.64 352.414 123.64C353.694 123.64 354.654 124.08 355.294 124.96C356.014 125.84 356.294 126.88 356.134 128.08C355.814 129.28 355.214 130.28 354.334 131.08C353.454 131.8 352.454 132.16 351.334 132.16ZM331.894 184.6C329.654 184.6 327.934 183.88 326.734 182.44C325.614 180.92 325.054 178.84 325.054 176.2C325.054 175 325.174 173.68 325.414 172.24C325.734 170.56 326.334 168.56 327.214 166.24C328.174 163.84 329.254 161.44 330.454 159.04C331.654 156.64 332.734 154.6 333.694 152.92C334.574 151.4 335.614 149.64 336.814 147.64C338.094 145.56 339.134 143.8 339.934 142.36C340.574 141.32 341.014 140.68 341.254 140.44C341.814 139.32 342.854 138.44 344.374 137.8C345.894 137.08 347.294 136.72 348.574 136.72C350.254 136.72 351.094 137.24 351.094 138.28C351.094 138.76 350.854 139.36 350.374 140.08C348.854 142.56 347.054 145.44 344.974 148.72C342.974 151.92 341.014 155.24 339.094 158.68C337.174 162.12 335.574 165.4 334.294 168.52C333.094 171.56 332.494 174.16 332.494 176.32C332.494 178.56 333.334 179.68 335.014 179.68C336.134 179.68 337.494 179.08 339.094 177.88C340.694 176.68 342.254 175.32 343.774 173.8C345.294 172.28 346.454 171.08 347.254 170.2L349.654 167.68C350.054 167.28 350.414 166.88 350.734 166.48C351.054 166 351.374 165.56 351.694 165.16C351.934 164.76 352.254 164.56 352.654 164.56C353.614 164.56 354.094 165.12 354.094 166.24C354.094 166.8 353.894 167.28 353.494 167.68C352.614 168.8 351.734 169.88 350.854 170.92C349.974 171.96 349.054 173 348.094 174.04C346.734 175.64 345.214 177.28 343.534 178.96C341.854 180.56 340.054 181.92 338.134 183.04C336.214 184.08 334.134 184.6 331.894 184.6ZM357.248 194.32C351.008 194.32 347.888 190.76 347.888 183.64C347.888 181.56 348.168 179.16 348.728 176.44C349.368 173.72 350.208 170.76 351.248 167.56C352.288 164.76 353.608 161.56 355.208 157.96C356.888 154.28 358.608 150.72 360.368 147.28C355.968 148.72 352.248 149.44 349.208 149.44C348.008 149.44 347.048 149.32 346.328 149.08C344.808 148.76 344.048 148.2 344.048 147.4C344.048 147 344.328 146.68 344.888 146.44C345.368 146.2 346.088 146.16 347.048 146.32C347.368 146.4 347.648 146.44 347.888 146.44C348.208 146.44 348.528 146.44 348.848 146.44C352.608 146.44 357.128 145.32 362.408 143.08C371.848 126.2 382.288 112.44 393.728 101.8C395.808 99.72 398.208 98.08 400.928 96.88C403.728 95.68 406.328 95.08 408.728 95.08C410.808 95.08 412.528 95.68 413.888 96.88C415.328 98 416.048 99.84 416.048 102.4C416.048 104.32 415.568 106.36 414.608 108.52C412.288 113.48 408.008 118.6 401.768 123.88C400.248 125.16 398.688 126.44 397.088 127.72C395.488 128.92 393.848 130.08 392.168 131.2C385.368 135.92 378.368 139.88 371.168 143.08C369.728 145.64 368.288 148.4 366.848 151.36C365.408 154.32 364.008 157.44 362.648 160.72C362.088 162 361.528 163.36 360.968 164.8C360.408 166.24 359.888 167.64 359.408 169L357.368 174.04C356.648 175.8 356.008 177.72 355.448 179.8C354.888 181.88 354.608 183.8 354.608 185.56C354.608 187.08 354.848 188.32 355.328 189.28C355.888 190.24 356.768 190.72 357.968 190.72C359.808 190.72 361.688 189.52 363.608 187.12C365.608 184.8 367.368 182.32 368.888 179.68C369.928 177.84 370.888 175.88 371.768 173.8C372.728 171.64 373.488 169.6 374.048 167.68C374.688 165.68 375.048 164.12 375.128 163L375.248 161.8C373.088 160.92 372.008 158.96 372.008 155.92C372.008 153.84 372.408 152.08 373.208 150.64C374.088 149.2 375.128 148.48 376.328 148.48C378.888 148.48 380.168 150.8 380.168 155.44C380.168 156.24 380.128 157.16 380.048 158.2C379.968 159.16 379.848 160.2 379.688 161.32C380.248 161.48 381.008 161.64 381.968 161.8C383.008 161.96 383.888 162.04 384.608 162.04C387.328 162.04 389.608 161.2 391.448 159.52C393.368 157.84 395.208 155.84 396.968 153.52C397.288 153.12 397.648 152.92 398.048 152.92C398.448 152.92 398.768 153.12 399.008 153.52C399.248 153.92 399.368 154.4 399.368 154.96C399.368 155.44 399.248 155.92 399.008 156.4C394.848 162.56 390.088 165.64 384.728 165.64C383.128 165.64 381.288 165.32 379.208 164.68L378.608 166.72C378.528 167.12 378.408 167.52 378.248 167.92C378.168 168.24 378.088 168.56 378.008 168.88C377.288 170.8 376.208 173.2 374.768 176.08C373.408 178.88 371.808 181.68 369.968 184.48C368.128 187.28 366.128 189.6 363.968 191.44C361.808 193.36 359.568 194.32 357.248 194.32ZM403.808 101.2C402.128 102.16 399.968 104 397.328 106.72C394.688 109.36 391.888 112.52 388.928 116.2C385.968 119.88 383.048 123.68 380.168 127.6C377.368 131.44 374.928 135.08 372.848 138.52C378.128 135.72 383.328 132.68 388.448 129.4C393.648 126.04 398.248 122.36 402.248 118.36C406.328 114.36 409.408 109.88 411.488 104.92C411.968 103.8 412.208 102.84 412.208 102.04C412.208 100.2 411.248 99.28 409.328 99.28C407.728 99.28 405.888 99.92 403.808 101.2Z" fill="white"/>
</svg>
